<!DOCTYPE svg PUBLIC "-//W3C//DTD SVG 1.1//EN" "http://www.w3.org/Graphics/SVG/1.1/DTD/svg11.dtd">
<!-- Uploaded to: SVG Repo, www.svgrepo.com, Transformed by: SVG Repo Mixer Tools -->
<svg fill="#04764E" height="800px" width="800px" version="1.1" id="Layer_1" xmlns="http://www.w3.org/2000/svg" xmlns:xlink="http://www.w3.org/1999/xlink" viewBox="0 0 298.803 298.803" xml:space="preserve" stroke="#04764E">
<g id="SVGRepo_bgCarrier" stroke-width="0"/>
<g id="SVGRepo_tracerCarrier" stroke-linecap="round" stroke-linejoin="round"/>
<g id="SVGRepo_iconCarrier"> <g> <g> <path d="M268.463,86.942c-2.354-2.512-5.643-3.938-9.085-3.938h-58.1V45.32l46.717-21.562c6.243-2.882,8.968-10.279,6.086-16.522 c-2.881-6.243-10.278-8.968-16.521-6.087l-53.95,24.9c-4.409,2.035-7.233,6.448-7.233,11.305v45.65h-25.054 c-2.145-32.395-29.168-58.1-62.096-58.1c-34.325,0-62.25,27.925-62.25,62.25s27.925,62.25,62.25,62.25 c6.787,0,13.506-1.134,19.878-3.281l9.199,141.041c0.427,6.548,5.862,11.64,12.423,11.64h116.2c6.561,0,11.997-5.092,12.423-11.64 l12.45-190.9C272.025,92.829,270.816,89.454,268.463,86.942z M118.277,83.004c-3.443,0-6.731,1.425-9.085,3.938 s-3.562,5.887-3.338,9.323l1.536,23.543c-5.512,3.085-11.691,4.697-18.162,4.697c-20.595,0-37.35-16.755-37.35-37.35 s16.755-37.35,37.35-37.35c19.191,0,35.042,14.552,37.114,33.2H118.277z M132.69,125.146c-0.003-0.03-0.003-0.059-0.006-0.089 l-1.119-17.154h44.812v24.9H133.19L132.69,125.146z M235.263,273.904h-92.871l-7.578-116.2h108.028L235.263,273.904z M244.465,132.804h-43.187v-24.9h44.812L244.465,132.804z"/> </g> </g> </g>
</svg>